<svg width="62" height="62" viewBox="0 0 62 62" fill="none" xmlns="http://www.w3.org/2000/svg">
<g clip-path="url(#clip0_3720_1962)">
<path d="M56.8346 19.4655V43.9167C56.8347 45.8935 56.0795 47.7956 54.7233 49.2339C53.3672 50.6721 51.5127 51.5378 49.5393 51.6538L49.0846 51.6667H12.918C10.9412 51.6668 9.03906 50.9115 7.60079 49.5554C6.16253 48.1992 5.29686 46.3448 5.18089 44.3714L5.16797 43.9167V19.4655L29.5676 35.7327L29.8672 35.9032C30.2204 36.0758 30.6082 36.1654 31.0013 36.1654C31.3944 36.1654 31.7822 36.0758 32.1354 35.9032L32.4351 35.7327L56.8346 19.4655Z" fill="white"/>
<path d="M49.0835 10.3333C51.8735 10.3333 54.3199 11.8058 55.6839 14.0197L31.0002 30.4756L6.31641 14.0197C6.96413 12.9677 7.85404 12.0858 8.9119 11.4477C9.96976 10.8096 11.1649 10.4337 12.3976 10.3514L12.9168 10.3333H49.0835Z" fill="white"/>
</g>
<defs>
<clipPath id="clip0_3720_1962">
<rect width="62" height="62" fill="white"/>
</clipPath>
</defs>
</svg>
