<svg width="32" height="30" viewBox="0 0 32 30" fill="none" xmlns="http://www.w3.org/2000/svg">
<path d="M28.5622 10.2224C28.5817 10.4953 28.5817 10.7682 28.5817 11.0411C28.5817 19.3643 22.2467 28.9546 10.6682 28.9546C7.1011 28.9546 3.78742 27.9214 1 26.1282C1.50682 26.1866 1.99408 26.2061 2.5204 26.2061C5.4637 26.2061 8.17318 25.2121 10.3368 23.5162C7.56892 23.4577 5.24932 21.6449 4.45012 19.1499C4.84 19.2083 5.22982 19.2473 5.6392 19.2473C6.20446 19.2473 6.76978 19.1693 7.29604 19.033C4.41118 18.4481 2.24746 15.9142 2.24746 12.8539V12.7759C3.0856 13.2437 4.0603 13.5361 5.09332 13.5751C3.39748 12.4445 2.28646 10.5148 2.28646 8.33159C2.28646 7.16207 2.59828 6.08999 3.1441 5.15435C6.2434 8.97485 10.9021 11.4698 16.126 11.7428C16.0286 11.275 15.9701 10.7877 15.9701 10.3004C15.9701 6.83069 18.777 4.00433 22.2661 4.00433C24.0789 4.00433 25.7162 4.76453 26.8663 5.99255C28.2892 5.71967 29.6537 5.19335 30.8622 4.47215C30.3944 5.93411 29.4003 7.16213 28.0943 7.94177C29.3613 7.80539 30.5894 7.45445 31.7199 6.96719C30.8624 8.21465 29.7902 9.32567 28.5622 10.2224Z" fill="#FBFBFB"/>
</svg>
