<svg width="96" height="96" viewBox="0 0 96 96" fill="none" xmlns="http://www.w3.org/2000/svg">
<g clip-path="url(#clip0_3503_5343)">
<path d="M25.3213 32H70.6773C71.8307 31.9999 72.9706 32.2492 74.0187 32.7308C75.0668 33.2124 75.9984 33.915 76.7495 34.7904C77.5006 35.6658 78.0536 36.6932 78.3704 37.8023C78.6873 38.9114 78.7606 40.0759 78.5853 41.216L73.5653 73.824C73.1295 76.6578 71.6935 79.2419 69.5172 81.1085C67.341 82.9751 64.5684 84.0008 61.7013 84H34.2933C31.4269 83.9999 28.6552 82.9737 26.4798 81.1072C24.3044 79.2407 22.869 76.6571 22.4333 73.824L17.4133 41.216C17.2379 40.0759 17.3112 38.9114 17.6281 37.8023C17.945 36.6932 18.4979 35.6658 19.2491 34.7904C20.0002 33.915 20.9317 33.2124 21.9798 32.7308C23.0279 32.2492 24.1678 31.9999 25.3213 32Z" stroke="#28488A" stroke-width="2" stroke-linecap="round" stroke-linejoin="round"/>
<path d="M36 44V24C36 20.8174 37.2643 17.7652 39.5147 15.5147C41.7652 13.2643 44.8174 12 48 12C51.1826 12 54.2348 13.2643 56.4853 15.5147C58.7357 17.7652 60 20.8174 60 24V44" stroke="#28488A" stroke-width="2" stroke-linecap="round" stroke-linejoin="round"/>
</g>
<defs>
<clipPath id="clip0_3503_5343">
<rect width="96" height="96" fill="white"/>
</clipPath>
</defs>
</svg>
