<svg width="32" height="30" viewBox="0 0 32 30" fill="none" xmlns="http://www.w3.org/2000/svg">
<path fill-rule="evenodd" clip-rule="evenodd" d="M28.8005 9.9005C28.6985 7.7465 28.2065 5.8385 26.6285 4.2665C25.0565 2.6945 23.1485 2.2025 20.9945 2.0945C18.7745 1.9685 12.1205 1.9685 9.9005 2.0945C7.7525 2.1965 5.8445 2.6885 4.2665 4.2605C2.6885 5.8325 2.2025 7.7405 2.0945 9.8945C1.9685 12.1145 1.9685 18.7685 2.0945 20.9885C2.1965 23.1425 2.6885 25.0505 4.2665 26.6225C5.8445 28.1945 7.7465 28.6865 9.9005 28.7945C12.1205 28.9205 18.7745 28.9205 20.9945 28.7945C23.1485 28.6925 25.0565 28.2005 26.6285 26.6225C28.2005 25.0505 28.6925 23.1425 28.8005 20.9885C28.9265 18.7685 28.9265 12.1205 28.8005 9.9005ZM22.6236 9.87664C23.5116 9.87664 24.2316 9.16264 24.2316 8.26864C24.2316 7.38064 23.5116 6.66064 22.6236 6.66064C21.7356 6.66064 21.0156 7.38064 21.0156 8.26864C21.0156 9.15664 21.7296 9.87664 22.6236 9.87664ZM15.4487 8.55054C11.6327 8.55054 8.55469 11.6285 8.55469 15.4445C8.55469 19.2605 11.6327 22.3385 15.4487 22.3385C19.2647 22.3385 22.3427 19.2605 22.3427 15.4445C22.3427 11.6285 19.2647 8.55054 15.4487 8.55054ZM15.4508 19.9264C12.9847 19.9264 10.9688 17.9164 10.9688 15.4444C10.9688 12.9724 12.9788 10.9624 15.4508 10.9624C17.9227 10.9624 19.9328 12.9724 19.9328 15.4444C19.9328 17.9164 17.9167 19.9264 15.4508 19.9264ZM23.3782 25.9264C24.5602 25.4524 25.4662 24.5464 25.9342 23.3704C26.5363 21.8574 26.5028 18.5478 26.4811 16.4024C26.4775 16.0465 26.4742 15.7227 26.4742 15.4444C26.4742 15.1661 26.4775 14.8423 26.4811 14.4865C26.5028 12.3423 26.5363 9.03653 25.9342 7.5184C25.4602 6.33641 24.5542 5.43041 23.3782 4.96241C21.8604 4.36355 18.5348 4.39546 16.39 4.41603C16.0421 4.41937 15.7252 4.42241 15.4522 4.42241C15.1739 4.42241 14.8501 4.41912 14.4943 4.41552C12.3501 4.3938 9.04434 4.3603 7.52622 4.96241C6.34422 5.43641 5.43822 6.34241 4.97022 7.5184C4.37137 9.03618 4.40327 12.3618 4.42384 14.5066C4.42718 14.8545 4.43022 15.1714 4.43022 15.4444C4.43022 15.7228 4.42694 16.0465 4.42333 16.4023C4.40161 18.5465 4.36811 21.8523 4.97022 23.3704C5.44422 24.5524 6.35022 25.4584 7.52622 25.9264C9.04399 26.5253 12.3696 26.4934 14.5144 26.4728C14.8623 26.4694 15.1792 26.4664 15.4522 26.4664C15.7306 26.4664 16.0543 26.4697 16.4101 26.4733C18.5544 26.495 21.8601 26.5285 23.3782 25.9264Z" fill="#FBFBFB"/>
</svg>
