<svg width="96" height="96" viewBox="0 0 96 96" fill="none" xmlns="http://www.w3.org/2000/svg">
<g clip-path="url(#clip0_3503_5333)">
<path d="M28 16V84M16 16V28C16 29.5759 16.3104 31.1363 16.9134 32.5922C17.5165 34.0481 18.4004 35.371 19.5147 36.4853C20.629 37.5996 21.9519 38.4835 23.4078 39.0866C24.8637 39.6896 26.4241 40 28 40C29.5759 40 31.1363 39.6896 32.5922 39.0866C34.0481 38.4835 35.371 37.5996 36.4853 36.4853C37.5996 35.371 38.4835 34.0481 39.0866 32.5922C39.6896 31.1363 40 29.5759 40 28V16" stroke="#28488A" stroke-width="2" stroke-linecap="round" stroke-linejoin="round"/>
<path d="M56 32C56 36.2435 57.2643 40.3131 59.5147 43.3137C61.7652 46.3143 64.8174 48 68 48C71.1826 48 74.2348 46.3143 76.4853 43.3137C78.7357 40.3131 80 36.2435 80 32C80 27.7565 78.7357 23.6869 76.4853 20.6863C74.2348 17.6857 71.1826 16 68 16C64.8174 16 61.7652 17.6857 59.5147 20.6863C57.2643 23.6869 56 27.7565 56 32Z" stroke="#28488A" stroke-width="2" stroke-linecap="round" stroke-linejoin="round"/>
<path d="M68 48V84" stroke="#28488A" stroke-width="2" stroke-linecap="round" stroke-linejoin="round"/>
</g>
<defs>
<clipPath id="clip0_3503_5333">
<rect width="96" height="96" fill="white"/>
</clipPath>
</defs>
</svg>
