<svg width="96" height="96" viewBox="0 0 96 96" fill="none" xmlns="http://www.w3.org/2000/svg">
<g clip-path="url(#clip0_3503_5347)">
<path d="M16 44H80C81.0609 44 82.0783 44.4214 82.8284 45.1716C83.5786 45.9217 84 46.9391 84 48V50C84 56 73.932 72.292 68 76V80C68 81.0609 67.5786 82.0783 66.8284 82.8284C66.0783 83.5786 65.0609 84 64 84H32C30.9391 84 29.9217 83.5786 29.1716 82.8284C28.4214 82.0783 28 81.0609 28 80V76C21.252 71.784 12 56 12 50V48C12 46.9391 12.4214 45.9217 13.1716 45.1716C13.9217 44.4214 14.9391 44 16 44Z" stroke="#28488A" stroke-width="2" stroke-linecap="round" stroke-linejoin="round"/>
<path d="M47.9982 16C46.7322 16.9087 45.7065 18.1119 45.0096 19.5057C44.3127 20.8995 43.9656 22.442 43.9982 24C43.9656 25.558 44.3127 27.1005 45.0096 28.4943C45.7065 29.8881 46.7322 31.0913 47.9982 32" stroke="#28488A" stroke-width="2" stroke-linecap="round" stroke-linejoin="round"/>
<path d="M63.9982 16C62.7322 16.9087 61.7065 18.1119 61.0096 19.5057C60.3127 20.8995 59.9656 22.442 59.9982 24C59.9656 25.558 60.3127 27.1005 61.0096 28.4943C61.7065 29.8881 62.7322 31.0913 63.9982 32" stroke="#28488A" stroke-width="2" stroke-linecap="round" stroke-linejoin="round"/>
<path d="M31.9982 16C30.7322 16.9087 29.7065 18.1119 29.0096 19.5057C28.3127 20.8995 27.9656 22.442 27.9982 24C27.9656 25.558 28.3127 27.1005 29.0096 28.4943C29.7065 29.8881 30.7322 31.0913 31.9982 32" stroke="#28488A" stroke-width="2" stroke-linecap="round" stroke-linejoin="round"/>
</g>
<defs>
<clipPath id="clip0_3503_5347">
<rect width="96" height="96" fill="white"/>
</clipPath>
</defs>
</svg>
