<svg width="96" height="96" viewBox="0 0 96 96" fill="none" xmlns="http://www.w3.org/2000/svg">
<g clip-path="url(#clip0_3503_5353)">
<path d="M20 20C20 17.8783 20.8429 15.8434 22.3431 14.3431C23.8434 12.8429 25.8783 12 28 12H68C70.1217 12 72.1566 12.8429 73.6569 14.3431C75.1571 15.8434 76 17.8783 76 20V28C76 30.1217 75.1571 32.1566 73.6569 33.6569C72.1566 35.1571 70.1217 36 68 36H28C25.8783 36 23.8434 35.1571 22.3431 33.6569C20.8429 32.1566 20 30.1217 20 28V20Z" stroke="#28488A" stroke-width="2" stroke-linecap="round" stroke-linejoin="round"/>
<path d="M76 24H80C82.1217 24 84.1566 24.8429 85.6569 26.3431C87.1571 27.8434 88 29.8783 88 32C88 37.3043 85.8929 42.3914 82.1421 46.1421C78.3914 49.8929 73.3043 52 68 52H48V60" stroke="#28488A" stroke-width="2" stroke-linecap="round" stroke-linejoin="round"/>
<path d="M40 64C40 62.9391 40.4214 61.9217 41.1716 61.1716C41.9217 60.4214 42.9391 60 44 60H52C53.0609 60 54.0783 60.4214 54.8284 61.1716C55.5786 61.9217 56 62.9391 56 64V80C56 81.0609 55.5786 82.0783 54.8284 82.8284C54.0783 83.5786 53.0609 84 52 84H44C42.9391 84 41.9217 83.5786 41.1716 82.8284C40.4214 82.0783 40 81.0609 40 80V64Z" stroke="#28488A" stroke-width="2" stroke-linecap="round" stroke-linejoin="round"/>
</g>
<defs>
<clipPath id="clip0_3503_5353">
<rect width="96" height="96" fill="white"/>
</clipPath>
</defs>
</svg>
