<svg width="96" height="96" viewBox="0 0 96 96" fill="none" xmlns="http://www.w3.org/2000/svg">
<g clip-path="url(#clip0_3503_5338)">
<path d="M68 16L80 28" stroke="#28488A" stroke-width="2" stroke-linecap="round" stroke-linejoin="round"/>
<path d="M74 22L42 54" stroke="#28488A" stroke-width="2" stroke-linecap="round" stroke-linejoin="round"/>
<path d="M33.1041 45.136L50.8641 62.896C51.2236 63.2555 51.5089 63.6824 51.7035 64.1522C51.8981 64.622 51.9982 65.1255 51.9982 65.634C51.9982 66.1425 51.8981 66.646 51.7035 67.1158C51.5089 67.5856 51.2236 68.0124 50.8641 68.372L40.0481 79.188C36.9604 82.2411 32.7898 83.9479 28.4475 83.9355C24.1053 83.9231 19.9445 82.1925 16.8743 79.1217C13.8041 76.051 12.0742 71.8899 12.0626 67.5477C12.0509 63.2055 13.7584 59.0351 16.8121 55.948L27.6281 45.136C27.9877 44.7758 28.4148 44.4901 28.885 44.2951C29.3551 44.1002 29.8591 43.9998 30.3681 43.9998C30.877 43.9998 31.381 44.1002 31.8512 44.2951C32.3213 44.4901 32.7485 44.7758 33.1081 45.136H33.1041Z" stroke="#28488A" stroke-width="2" stroke-linecap="round" stroke-linejoin="round"/>
</g>
<defs>
<clipPath id="clip0_3503_5338">
<rect width="96" height="96" fill="white"/>
</clipPath>
</defs>
</svg>
