<svg width="32" height="30" viewBox="0 0 32 30" fill="none" xmlns="http://www.w3.org/2000/svg">
<path fill-rule="evenodd" clip-rule="evenodd" d="M5.2274 7.4854C3.4454 7.4854 2 6.0094 2 4.2274C2 2.44496 3.44496 1 5.2274 1C7.00984 1 8.4548 2.44496 8.4548 4.2274C8.4548 6.0094 7.0088 7.4854 5.2274 7.4854ZM8.01811 27.8796H2.44531V9.93359H8.01811V27.8796ZM23.3132 27.8794H28.874H28.88V18.0214C28.88 13.1974 27.8432 9.4834 22.2032 9.4834C19.4918 9.4834 17.6744 10.9714 16.9304 12.3814H16.8524V9.9334H11.5076V27.8794H17.0744V18.9934C17.0744 16.6534 17.5184 14.3914 20.4158 14.3914C23.2712 14.3914 23.3132 17.0614 23.3132 19.1434V27.8794Z" fill="#FBFBFB"/>
</svg>
