<svg width="258" height="33" viewBox="0 0 258 33" fill="none" xmlns="http://www.w3.org/2000/svg">
<path d="M9.01807 19L5.06494 6.11865H4.96387C5.10612 8.7391 5.17725 10.4873 5.17725 11.3633V19H2.06641V2.58105H6.80566L10.6914 15.1367H10.7588L14.8804 2.58105H19.6196V19H16.374V11.2285C16.374 10.8617 16.3778 10.4386 16.3853 9.95947C16.4002 9.48031 16.4526 8.20752 16.5425 6.14111H16.4414L12.2075 19H9.01807ZM37.3862 10.6333C37.3862 13.3361 36.6151 15.4062 35.0728 16.8438C33.5379 18.2812 31.318 19 28.4131 19H23.7637V2.58105H28.9185C31.5988 2.58105 33.6802 3.28857 35.1626 4.70361C36.645 6.11865 37.3862 8.09521 37.3862 10.6333ZM33.77 10.7231C33.77 7.19678 32.2127 5.43359 29.0981 5.43359H27.2451V16.125H28.7388C32.0929 16.125 33.77 14.3244 33.77 10.7231ZM46.9546 2.58105H51.5928C53.7715 2.58105 55.3475 2.90674 56.3208 3.55811C57.2941 4.20947 57.7808 5.23893 57.7808 6.64648C57.7808 7.61979 57.5075 8.42464 56.9609 9.06104C56.4219 9.68994 55.632 10.098 54.5913 10.2852V10.3975C57.0845 10.8242 58.3311 12.1344 58.3311 14.3281C58.3311 15.7956 57.8332 16.9411 56.8374 17.7646C55.8491 18.5882 54.464 19 52.6821 19H46.9546V2.58105ZM48.8638 9.61133H52.0083C53.356 9.61133 54.3255 9.40169 54.917 8.98242C55.5085 8.55566 55.8042 7.84066 55.8042 6.8374C55.8042 5.9165 55.4748 5.25391 54.8159 4.84961C54.1571 4.43783 53.1089 4.23193 51.6714 4.23193H48.8638V9.61133ZM48.8638 11.2285V17.3716H52.2891C53.6143 17.3716 54.61 17.117 55.2764 16.6079C55.9502 16.0913 56.2871 15.2865 56.2871 14.1934C56.2871 13.1751 55.9427 12.4264 55.2539 11.9473C54.5726 11.4681 53.5319 11.2285 52.1318 11.2285H48.8638ZM74.2671 2.58105V13.2051C74.2671 15.0768 73.7018 16.548 72.5713 17.6187C71.4408 18.6893 69.8872 19.2246 67.9106 19.2246C65.9341 19.2246 64.403 18.6855 63.3174 17.6074C62.2393 16.5293 61.7002 15.0469 61.7002 13.1602V2.58105H63.6094V13.2949C63.6094 14.665 63.9837 15.717 64.7324 16.4507C65.4811 17.1844 66.5817 17.5513 68.0342 17.5513C69.4193 17.5513 70.4862 17.1844 71.2349 16.4507C71.9836 15.7095 72.3579 14.6501 72.3579 13.2725V2.58105H74.2671ZM78.6245 19V2.58105H80.5337V19H78.6245ZM85.0483 19V2.58105H86.9575V17.2705H94.2012V19H85.0483ZM110.104 10.6333C110.104 13.3436 109.366 15.4175 107.891 16.855C106.424 18.285 104.309 19 101.546 19H96.9976V2.58105H102.029C104.582 2.58105 106.566 3.28857 107.981 4.70361C109.396 6.11865 110.104 8.09521 110.104 10.6333ZM108.082 10.7007C108.082 8.55941 107.543 6.94596 106.465 5.86035C105.394 4.77474 103.799 4.23193 101.681 4.23193H98.9067V17.3491H101.231C103.507 17.3491 105.218 16.7913 106.364 15.6758C107.509 14.5527 108.082 12.8944 108.082 10.7007ZM113.776 19V2.58105H115.685V19H113.776ZM133.025 19H130.846L121.873 5.22021H121.783C121.903 6.8374 121.963 8.31982 121.963 9.66748V19H120.2V2.58105H122.356L131.307 16.3047H131.396C131.382 16.1025 131.348 15.4549 131.295 14.3618C131.243 13.2612 131.224 12.4751 131.239 12.0034V2.58105H133.025V19ZM144.761 10.3975H150.342V18.3823C149.474 18.6593 148.59 18.869 147.692 19.0112C146.793 19.1535 145.753 19.2246 144.57 19.2246C142.084 19.2246 140.149 18.4871 138.764 17.0122C137.379 15.5298 136.686 13.4559 136.686 10.7905C136.686 9.0835 137.027 7.58984 137.708 6.30957C138.397 5.02181 139.385 4.04102 140.673 3.36719C141.961 2.68587 143.469 2.34521 145.199 2.34521C146.951 2.34521 148.583 2.66715 150.095 3.31104L149.354 4.99561C147.872 4.3667 146.445 4.05225 145.075 4.05225C143.076 4.05225 141.515 4.64746 140.392 5.83789C139.269 7.02832 138.708 8.6792 138.708 10.7905C138.708 13.0067 139.247 14.6875 140.325 15.833C141.41 16.9785 143.001 17.5513 145.098 17.5513C146.236 17.5513 147.347 17.4202 148.433 17.1582V12.1045H144.761V10.3975ZM169.535 14.6313C169.535 16.0763 169.011 17.2031 167.963 18.0117C166.915 18.8203 165.492 19.2246 163.695 19.2246C161.749 19.2246 160.251 18.9738 159.203 18.4722V16.6304C159.877 16.9149 160.611 17.1395 161.404 17.3042C162.198 17.4689 162.984 17.5513 163.763 17.5513C165.035 17.5513 165.994 17.3117 166.638 16.8325C167.282 16.3459 167.604 15.672 167.604 14.811C167.604 14.242 167.487 13.7778 167.255 13.4185C167.031 13.0516 166.649 12.7147 166.11 12.4077C165.578 12.1007 164.766 11.7526 163.673 11.3633C162.146 10.8167 161.052 10.1691 160.394 9.42041C159.742 8.67171 159.417 7.69466 159.417 6.48926C159.417 5.22396 159.892 4.21696 160.843 3.46826C161.794 2.71956 163.051 2.34521 164.616 2.34521C166.248 2.34521 167.75 2.64469 169.12 3.24365L168.524 4.90576C167.169 4.33675 165.852 4.05225 164.571 4.05225C163.561 4.05225 162.771 4.26937 162.202 4.70361C161.633 5.13786 161.348 5.74056 161.348 6.51172C161.348 7.08073 161.453 7.54867 161.663 7.91553C161.872 8.2749 162.224 8.60807 162.718 8.91504C163.22 9.21452 163.984 9.54769 165.009 9.91455C166.731 10.5285 167.914 11.1873 168.558 11.8911C169.209 12.5949 169.535 13.5083 169.535 14.6313ZM182.046 19H172.893V2.58105H182.046V4.27686H174.802V9.56641H181.608V11.251H174.802V17.293H182.046V19ZM187.605 12.1719V19H185.696V2.58105H190.199C192.213 2.58105 193.699 2.96663 194.658 3.73779C195.624 4.50895 196.106 5.66943 196.106 7.21924C196.106 9.39046 195.006 10.8579 192.805 11.6216L197.263 19H195.006L191.03 12.1719H187.605ZM187.605 10.5322H190.222C191.569 10.5322 192.558 10.2664 193.187 9.73486C193.815 9.1958 194.13 8.39095 194.13 7.32031C194.13 6.2347 193.808 5.45231 193.164 4.97314C192.528 4.49398 191.502 4.25439 190.087 4.25439H187.605V10.5322ZM209.291 2.58105H211.346L205.428 19H203.541L197.656 2.58105H199.678L203.451 13.2051C203.885 14.4255 204.23 15.6121 204.484 16.7651C204.754 15.5522 205.106 14.3431 205.54 13.1377L209.291 2.58105ZM213.615 19V2.58105H215.524V19H213.615ZM227.069 4.05225C225.264 4.05225 223.838 4.65495 222.79 5.86035C221.749 7.05827 221.229 8.70166 221.229 10.7905C221.229 12.9393 221.731 14.6014 222.734 15.7769C223.745 16.9448 225.182 17.5288 227.046 17.5288C228.192 17.5288 229.498 17.3229 230.966 16.9111V18.5845C229.828 19.0112 228.424 19.2246 226.754 19.2246C224.336 19.2246 222.468 18.4909 221.15 17.0234C219.84 15.556 219.185 13.4709 219.185 10.7681C219.185 9.07601 219.5 7.59359 220.128 6.3208C220.765 5.04801 221.678 4.06722 222.869 3.37842C224.067 2.68962 225.474 2.34521 227.091 2.34521C228.813 2.34521 230.318 2.65967 231.606 3.28857L230.797 4.92822C229.555 4.34424 228.312 4.05225 227.069 4.05225ZM243.701 19H234.548V2.58105H243.701V4.27686H236.458V9.56641H243.263V11.251H236.458V17.293H243.701V19ZM256.616 14.6313C256.616 16.0763 256.092 17.2031 255.044 18.0117C253.996 18.8203 252.573 19.2246 250.776 19.2246C248.83 19.2246 247.332 18.9738 246.284 18.4722V16.6304C246.958 16.9149 247.692 17.1395 248.485 17.3042C249.279 17.4689 250.065 17.5513 250.844 17.5513C252.117 17.5513 253.075 17.3117 253.719 16.8325C254.363 16.3459 254.685 15.672 254.685 14.811C254.685 14.242 254.569 13.7778 254.336 13.4185C254.112 13.0516 253.73 12.7147 253.191 12.4077C252.659 12.1007 251.847 11.7526 250.754 11.3633C249.227 10.8167 248.133 10.1691 247.475 9.42041C246.823 8.67171 246.498 7.69466 246.498 6.48926C246.498 5.22396 246.973 4.21696 247.924 3.46826C248.875 2.71956 250.132 2.34521 251.697 2.34521C253.329 2.34521 254.831 2.64469 256.201 3.24365L255.605 4.90576C254.25 4.33675 252.933 4.05225 251.652 4.05225C250.642 4.05225 249.852 4.26937 249.283 4.70361C248.714 5.13786 248.429 5.74056 248.429 6.51172C248.429 7.08073 248.534 7.54867 248.744 7.91553C248.953 8.2749 249.305 8.60807 249.799 8.91504C250.301 9.21452 251.065 9.54769 252.09 9.91455C253.812 10.5285 254.995 11.1873 255.639 11.8911C256.291 12.5949 256.616 13.5083 256.616 14.6313Z" fill="#28488A"/>
<rect x="2" y="30" width="255" height="3" fill="#28488A"/>
</svg>
