<svg width="255" height="31" viewBox="0 0 255 31" fill="none" xmlns="http://www.w3.org/2000/svg">
<g clip-path="url(#clip0_3503_5364)">
<path d="M7.01807 17L3.06494 4.11865H2.96387C3.10612 6.7391 3.17725 8.4873 3.17725 9.36328V17H0.0664062V0.581055H4.80566L8.69141 13.1367H8.75879L12.8804 0.581055H17.6196V17H14.374V9.22852C14.374 8.86165 14.3778 8.43864 14.3853 7.95947C14.4002 7.48031 14.4526 6.20752 14.5425 4.14111H14.4414L10.2075 17H7.01807ZM35.3862 8.6333C35.3862 11.3361 34.6151 13.4062 33.0728 14.8438C31.5379 16.2812 29.318 17 26.4131 17H21.7637V0.581055H26.9185C29.5988 0.581055 31.6802 1.28857 33.1626 2.70361C34.645 4.11865 35.3862 6.09521 35.3862 8.6333ZM31.77 8.72314C31.77 5.19678 30.2127 3.43359 27.0981 3.43359H25.2451V14.125H26.7388C30.0929 14.125 31.77 12.3244 31.77 8.72314ZM44.9546 0.581055H49.5928C51.7715 0.581055 53.3475 0.906738 54.3208 1.55811C55.2941 2.20947 55.7808 3.23893 55.7808 4.64648C55.7808 5.61979 55.5075 6.42464 54.9609 7.06104C54.4219 7.68994 53.632 8.09798 52.5913 8.28516V8.39746C55.0845 8.82422 56.3311 10.1344 56.3311 12.3281C56.3311 13.7956 55.8332 14.9411 54.8374 15.7646C53.8491 16.5882 52.464 17 50.6821 17H44.9546V0.581055ZM46.8638 7.61133H50.0083C51.356 7.61133 52.3255 7.40169 52.917 6.98242C53.5085 6.55566 53.8042 5.84066 53.8042 4.8374C53.8042 3.9165 53.4748 3.25391 52.8159 2.84961C52.1571 2.43783 51.1089 2.23193 49.6714 2.23193H46.8638V7.61133ZM46.8638 9.22852V15.3716H50.2891C51.6143 15.3716 52.61 15.117 53.2764 14.6079C53.9502 14.0913 54.2871 13.2865 54.2871 12.1934C54.2871 11.1751 53.9427 10.4264 53.2539 9.94727C52.5726 9.4681 51.5319 9.22852 50.1318 9.22852H46.8638ZM72.2671 0.581055V11.2051C72.2671 13.0768 71.7018 14.548 70.5713 15.6187C69.4408 16.6893 67.8872 17.2246 65.9106 17.2246C63.9341 17.2246 62.403 16.6855 61.3174 15.6074C60.2393 14.5293 59.7002 13.0469 59.7002 11.1602V0.581055H61.6094V11.2949C61.6094 12.665 61.9837 13.717 62.7324 14.4507C63.4811 15.1844 64.5817 15.5513 66.0342 15.5513C67.4193 15.5513 68.4862 15.1844 69.2349 14.4507C69.9836 13.7095 70.3579 12.6501 70.3579 11.2725V0.581055H72.2671ZM76.6245 17V0.581055H78.5337V17H76.6245ZM83.0483 17V0.581055H84.9575V15.2705H92.2012V17H83.0483ZM108.104 8.6333C108.104 11.3436 107.366 13.4175 105.891 14.855C104.424 16.285 102.309 17 99.5459 17H94.9976V0.581055H100.029C102.582 0.581055 104.566 1.28857 105.981 2.70361C107.396 4.11865 108.104 6.09521 108.104 8.6333ZM106.082 8.70068C106.082 6.55941 105.543 4.94596 104.465 3.86035C103.394 2.77474 101.799 2.23193 99.6807 2.23193H96.9067V15.3491H99.2314C101.507 15.3491 103.218 14.7913 104.364 13.6758C105.509 12.5527 106.082 10.8944 106.082 8.70068ZM111.776 17V0.581055H113.685V17H111.776ZM131.025 17H128.846L119.873 3.22021H119.783C119.903 4.8374 119.963 6.31982 119.963 7.66748V17H118.2V0.581055H120.356L129.307 14.3047H129.396C129.382 14.1025 129.348 13.4549 129.295 12.3618C129.243 11.2612 129.224 10.4751 129.239 10.0034V0.581055H131.025V17ZM142.761 8.39746H148.342V16.3823C147.474 16.6593 146.59 16.869 145.692 17.0112C144.793 17.1535 143.753 17.2246 142.57 17.2246C140.084 17.2246 138.149 16.4871 136.764 15.0122C135.379 13.5298 134.686 11.4559 134.686 8.79053C134.686 7.0835 135.027 5.58984 135.708 4.30957C136.397 3.02181 137.385 2.04102 138.673 1.36719C139.961 0.685872 141.469 0.345215 143.199 0.345215C144.951 0.345215 146.583 0.667155 148.095 1.31104L147.354 2.99561C145.872 2.3667 144.445 2.05225 143.075 2.05225C141.076 2.05225 139.515 2.64746 138.392 3.83789C137.269 5.02832 136.708 6.6792 136.708 8.79053C136.708 11.0067 137.247 12.6875 138.325 13.833C139.41 14.9785 141.001 15.5513 143.098 15.5513C144.236 15.5513 145.347 15.4202 146.433 15.1582V10.1045H142.761V8.39746ZM167.535 12.6313C167.535 14.0763 167.011 15.2031 165.963 16.0117C164.915 16.8203 163.492 17.2246 161.695 17.2246C159.749 17.2246 158.251 16.9738 157.203 16.4722V14.6304C157.877 14.9149 158.611 15.1395 159.404 15.3042C160.198 15.4689 160.984 15.5513 161.763 15.5513C163.035 15.5513 163.994 15.3117 164.638 14.8325C165.282 14.3459 165.604 13.672 165.604 12.811C165.604 12.242 165.487 11.7778 165.255 11.4185C165.031 11.0516 164.649 10.7147 164.11 10.4077C163.578 10.1007 162.766 9.7526 161.673 9.36328C160.146 8.81673 159.052 8.16911 158.394 7.42041C157.742 6.67171 157.417 5.69466 157.417 4.48926C157.417 3.22396 157.892 2.21696 158.843 1.46826C159.794 0.719564 161.051 0.345215 162.616 0.345215C164.248 0.345215 165.75 0.644694 167.12 1.24365L166.524 2.90576C165.169 2.33675 163.852 2.05225 162.571 2.05225C161.561 2.05225 160.771 2.26937 160.202 2.70361C159.633 3.13786 159.348 3.74056 159.348 4.51172C159.348 5.08073 159.453 5.54867 159.663 5.91553C159.872 6.2749 160.224 6.60807 160.718 6.91504C161.22 7.21452 161.984 7.54769 163.009 7.91455C164.731 8.52848 165.914 9.18734 166.558 9.89111C167.209 10.5949 167.535 11.5083 167.535 12.6313ZM180.046 17H170.893V0.581055H180.046V2.27686H172.802V7.56641H179.608V9.25098H172.802V15.293H180.046V17ZM185.605 10.1719V17H183.696V0.581055H188.199C190.213 0.581055 191.699 0.966634 192.658 1.73779C193.624 2.50895 194.106 3.66943 194.106 5.21924C194.106 7.39046 193.006 8.85791 190.805 9.62158L195.263 17H193.006L189.03 10.1719H185.605ZM185.605 8.53223H188.222C189.569 8.53223 190.558 8.26644 191.187 7.73486C191.815 7.1958 192.13 6.39095 192.13 5.32031C192.13 4.2347 191.808 3.45231 191.164 2.97314C190.528 2.49398 189.502 2.25439 188.087 2.25439H185.605V8.53223ZM207.291 0.581055H209.346L203.428 17H201.541L195.656 0.581055H197.678L201.451 11.2051C201.885 12.4255 202.23 13.6121 202.484 14.7651C202.754 13.5522 203.106 12.3431 203.54 11.1377L207.291 0.581055ZM211.615 17V0.581055H213.524V17H211.615ZM225.069 2.05225C223.264 2.05225 221.838 2.65495 220.79 3.86035C219.749 5.05827 219.229 6.70166 219.229 8.79053C219.229 10.9393 219.731 12.6014 220.734 13.7769C221.745 14.9448 223.182 15.5288 225.046 15.5288C226.192 15.5288 227.498 15.3229 228.966 14.9111V16.5845C227.828 17.0112 226.424 17.2246 224.754 17.2246C222.336 17.2246 220.468 16.4909 219.15 15.0234C217.84 13.556 217.185 11.4709 217.185 8.76807C217.185 7.07601 217.5 5.59359 218.128 4.3208C218.765 3.04801 219.678 2.06722 220.869 1.37842C222.067 0.689616 223.474 0.345215 225.091 0.345215C226.813 0.345215 228.318 0.659668 229.606 1.28857L228.797 2.92822C227.555 2.34424 226.312 2.05225 225.069 2.05225ZM241.701 17H232.548V0.581055H241.701V2.27686H234.458V7.56641H241.263V9.25098H234.458V15.293H241.701V17ZM254.616 12.6313C254.616 14.0763 254.092 15.2031 253.044 16.0117C251.996 16.8203 250.573 17.2246 248.776 17.2246C246.83 17.2246 245.332 16.9738 244.284 16.4722V14.6304C244.958 14.9149 245.692 15.1395 246.485 15.3042C247.279 15.4689 248.065 15.5513 248.844 15.5513C250.117 15.5513 251.075 15.3117 251.719 14.8325C252.363 14.3459 252.685 13.672 252.685 12.811C252.685 12.242 252.569 11.7778 252.336 11.4185C252.112 11.0516 251.73 10.7147 251.191 10.4077C250.659 10.1007 249.847 9.7526 248.754 9.36328C247.227 8.81673 246.133 8.16911 245.475 7.42041C244.823 6.67171 244.498 5.69466 244.498 4.48926C244.498 3.22396 244.973 2.21696 245.924 1.46826C246.875 0.719564 248.132 0.345215 249.697 0.345215C251.329 0.345215 252.831 0.644694 254.201 1.24365L253.605 2.90576C252.25 2.33675 250.933 2.05225 249.652 2.05225C248.642 2.05225 247.852 2.26937 247.283 2.70361C246.714 3.13786 246.429 3.74056 246.429 4.51172C246.429 5.08073 246.534 5.54867 246.744 5.91553C246.953 6.2749 247.305 6.60807 247.799 6.91504C248.301 7.21452 249.065 7.54769 250.09 7.91455C251.812 8.52848 252.995 9.18734 253.639 9.89111C254.291 10.5949 254.616 11.5083 254.616 12.6313Z" fill="#28488A"/>
<rect y="28" width="255" height="3" fill="#28488A"/>
</g>
<defs>
<clipPath id="clip0_3503_5364">
<rect width="255" height="31" fill="white"/>
</clipPath>
</defs>
</svg>
