<svg width="64" height="55" viewBox="0 0 64 55" fill="none" xmlns="http://www.w3.org/2000/svg">
<path d="M62.5625 41.2C62.5625 44.4667 61.3865 47.2107 59.0345 49.432C56.5518 51.784 53.4812 52.96 49.8225 52.96C46.0332 52.96 42.7012 51.588 39.8265 48.844C36.9518 46.1 35.5145 41.9187 35.5145 36.3C35.5145 30.5507 36.3638 25.5854 38.0625 21.404C39.7612 17.2227 41.9172 13.76 44.5305 11.016C47.0132 8.27202 49.8225 6.18135 52.9585 4.74402C55.9638 3.30669 58.8385 2.39202 61.5825 2.00002L61.5825 11.212C59.4918 11.7347 57.5318 12.584 55.7025 13.76C53.8732 15.0667 52.3705 16.5694 51.1945 18.268C49.8878 19.9667 48.8425 21.8614 48.0585 23.952C47.2745 26.0427 46.8825 28.1333 46.8825 30.224C47.1438 29.9627 47.6012 29.7014 48.2545 29.44C48.9078 29.3094 49.7572 29.244 50.8025 29.244C54.0692 29.244 56.8785 30.2894 59.2305 32.38C61.4518 34.4707 62.5625 37.4107 62.5625 41.2ZM29.0465 41.2C29.0465 44.4667 27.8705 47.2107 25.5185 49.432C23.0358 51.784 19.9652 52.96 16.3065 52.96C12.5172 52.96 9.18517 51.588 6.3105 48.844C3.43583 46.1 1.9985 41.9187 1.9985 36.3C1.9985 30.5507 2.84784 25.5853 4.5465 21.404C6.24517 17.2227 8.40117 13.76 11.0145 11.016C13.4972 8.27201 16.3065 6.18135 19.4425 4.74401C22.4478 3.30668 25.3225 2.39201 28.0665 2.00001L28.0665 11.212C25.9758 11.7347 24.0158 12.584 22.1865 13.76C20.3572 15.0667 18.8545 16.5694 17.6785 18.268C16.3718 19.9667 15.3265 21.8613 14.5425 23.952C13.7585 26.0427 13.3665 28.1333 13.3665 30.224C13.6278 29.9627 14.0852 29.7013 14.7385 29.44C15.3918 29.3094 16.2412 29.244 17.2865 29.244C20.5532 29.244 23.3625 30.2893 25.7145 32.38C27.9358 34.4707 29.0465 37.4107 29.0465 41.2Z" stroke="white" stroke-width="2"/>
</svg>
