<svg width="64" height="55" viewBox="0 0 64 55" fill="none" xmlns="http://www.w3.org/2000/svg">
<path d="M1 13.7601C1 10.4934 2.176 7.7494 4.528 5.52806C7.01067 3.17606 10.0813 2.00006 13.74 2.00006C17.5293 2.00006 20.8613 3.37206 23.736 6.11607C26.6107 8.86006 28.048 13.0414 28.048 18.6601C28.048 24.4094 27.1987 29.3747 25.5 33.5561C23.8013 37.7374 21.6453 41.2001 19.032 43.9441C16.5493 46.6881 13.74 48.7787 10.604 50.2161C7.59867 51.6534 4.724 52.5681 1.98 52.9601V43.7481C4.07067 43.2254 6.03067 42.3761 7.86 41.2001C9.68933 39.8934 11.192 38.3907 12.368 36.6921C13.6747 34.9934 14.72 33.0987 15.504 31.0081C16.288 28.9174 16.68 26.8267 16.68 24.7361C16.4187 24.9974 15.9613 25.2587 15.308 25.5201C14.6547 25.6507 13.8053 25.7161 12.76 25.7161C9.49333 25.7161 6.684 24.6707 4.332 22.5801C2.11067 20.4894 1 17.5494 1 13.7601ZM34.516 13.7601C34.516 10.4934 35.692 7.7494 38.044 5.52806C40.5267 3.17606 43.5973 2.00006 47.256 2.00006C51.0453 2.00006 54.3773 3.37206 57.252 6.11607C60.1267 8.86006 61.564 13.0414 61.564 18.6601C61.564 24.4094 60.7147 29.3747 59.016 33.5561C57.3173 37.7374 55.1613 41.2001 52.548 43.9441C50.0653 46.6881 47.256 48.7787 44.12 50.2161C41.1147 51.6534 38.24 52.5681 35.496 52.9601V43.7481C37.5867 43.2254 39.5467 42.3761 41.376 41.2001C43.2053 39.8934 44.708 38.3907 45.884 36.6921C47.1907 34.9934 48.236 33.0987 49.02 31.0081C49.804 28.9174 50.196 26.8267 50.196 24.7361C49.9347 24.9974 49.4773 25.2587 48.824 25.5201C48.1707 25.6507 47.3213 25.7161 46.276 25.7161C43.0093 25.7161 40.2 24.6707 37.848 22.5801C35.6267 20.4894 34.516 17.5494 34.516 13.7601Z" stroke="white" stroke-width="2"/>
</svg>
