<svg width="45" height="47" viewBox="0 0 45 47" fill="none" xmlns="http://www.w3.org/2000/svg">
<path fill-rule="evenodd" clip-rule="evenodd" d="M44.255 13.5655C44.0865 9.86699 43.2741 6.59087 40.6684 3.89168C38.0726 1.19249 34.922 0.347701 31.3651 0.162261C27.6993 -0.0540868 16.7117 -0.0540868 13.0459 0.162261C9.49895 0.337399 6.34832 1.18218 3.74261 3.88137C1.1369 6.58057 0.334383 9.85668 0.156045 13.5552C-0.0520151 17.367 -0.0520151 28.7922 0.156045 32.6041C0.324475 36.3026 1.1369 39.5787 3.74261 42.2779C6.34832 44.9771 9.48904 45.8219 13.0459 46.0073C16.7117 46.2236 27.6993 46.2236 31.3651 46.0073C34.922 45.8322 38.0726 44.9874 40.6684 42.2779C43.2642 39.5787 44.0766 36.3026 44.255 32.6041C44.463 28.7922 44.463 17.3773 44.255 13.5655ZM34.0572 13.5239C35.5235 13.5239 36.7124 12.2979 36.7124 10.7629C36.7124 9.23812 35.5235 8.00185 34.0572 8.00185C32.5908 8.00185 31.4019 9.23812 31.4019 10.7629C31.4019 12.2876 32.5809 13.5239 34.0572 13.5239ZM22.2048 11.2481C15.9036 11.2481 10.821 16.5332 10.821 23.0854C10.821 29.6377 15.9036 34.9227 22.2048 34.9227C28.5061 34.9227 33.5887 29.6377 33.5887 23.0854C33.5887 16.5332 28.5061 11.2481 22.2048 11.2481ZM22.2067 30.7806C18.1347 30.7806 14.8057 27.3294 14.8057 23.0849C14.8057 18.8403 18.1248 15.3891 22.2067 15.3891C26.2887 15.3891 29.6078 18.8403 29.6078 23.0849C29.6078 27.3294 26.2788 30.7806 22.2067 30.7806ZM35.2998 41.0826C37.2516 40.2688 38.7476 38.7131 39.5204 36.6939C40.5147 34.096 40.4594 28.4133 40.4235 24.7295C40.4175 24.1185 40.4121 23.5624 40.4121 23.0846C40.4121 22.6067 40.4175 22.0507 40.4235 21.4399C40.4594 17.7581 40.5147 12.082 39.5204 9.47532C38.7377 7.44578 37.2417 5.89014 35.2998 5.08656C32.7935 4.05831 27.302 4.11308 23.7604 4.14841C23.1858 4.15414 22.6626 4.15936 22.2118 4.15936C21.7522 4.15936 21.2175 4.15372 20.63 4.14753C17.0893 4.11023 11.6306 4.05272 9.12379 5.08656C7.17198 5.90044 5.67593 7.45608 4.90313 9.47532C3.91427 12.0814 3.96694 17.7917 4.00092 21.4743C4.00643 22.0717 4.01145 22.6158 4.01145 23.0846C4.01145 23.5625 4.00603 24.1185 4.00008 24.7293C3.9642 28.4111 3.9089 34.0872 4.90313 36.6939C5.68584 38.7234 7.18189 40.2791 9.12379 41.0826C11.6301 42.1109 17.1216 42.0561 20.6632 42.0208C21.2377 42.0151 21.7609 42.0098 22.2118 42.0098C22.6714 42.0098 23.2061 42.0155 23.7935 42.0217C27.3343 42.059 32.7929 42.1165 35.2998 41.0826Z" fill="#FBFBFB"/>
</svg>
