<svg width="45" height="47" viewBox="0 0 45 47" fill="none" xmlns="http://www.w3.org/2000/svg">
<path fill-rule="evenodd" clip-rule="evenodd" d="M5.32932 11.1357C2.38675 11.1357 0 8.60135 0 5.54158C0 2.48105 2.38602 0 5.32932 0C8.27262 0 10.6586 2.48105 10.6586 5.54158C10.6586 8.60135 8.2709 11.1357 5.32932 11.1357ZM9.93768 46.1527H0.735464V15.3387H9.93768V46.1527ZM35.1922 46.153H44.3746H44.3845V29.2264C44.3845 20.9434 42.6725 14.5663 33.3593 14.5663C28.882 14.5663 25.881 17.1213 24.6525 19.5423H24.5237V15.339H15.6979V46.153H24.8903V30.8954C24.8903 26.8775 25.6234 22.9935 30.4078 22.9935C35.1229 22.9935 35.1922 27.578 35.1922 31.1529V46.153Z" fill="#FBFBFB"/>
</svg>
