<svg width="63" height="54" viewBox="0 0 63 54" fill="none" xmlns="http://www.w3.org/2000/svg">
<path d="M61.5625 40.353C61.5625 43.6197 60.3865 46.3637 58.0345 48.585C55.5518 50.937 52.4812 52.113 48.8225 52.113C45.0332 52.113 41.7012 50.741 38.8265 47.997C35.9518 45.253 34.5145 41.0717 34.5145 35.453C34.5145 29.7037 35.3638 24.7384 37.0625 20.557C38.7612 16.3757 40.9172 12.913 43.5305 10.169C46.0132 7.42503 48.8225 5.33437 51.9585 3.89703C54.9638 2.4597 57.8385 1.54503 60.5825 1.15303L60.5825 10.365C58.4918 10.8877 56.5318 11.737 54.7025 12.913C52.8732 14.2197 51.3705 15.7224 50.1945 17.421C48.8878 19.1197 47.8425 21.0144 47.0585 23.105C46.2745 25.1957 45.8825 27.2864 45.8825 29.377C46.1438 29.1157 46.6012 28.8544 47.2545 28.593C47.9078 28.4624 48.7572 28.397 49.8025 28.397C53.0692 28.397 55.8785 29.4424 58.2305 31.533C60.4518 33.6237 61.5625 36.5637 61.5625 40.353ZM28.0465 40.353C28.0465 43.6197 26.8705 46.3637 24.5185 48.585C22.0358 50.937 18.9652 52.113 15.3065 52.113C11.5172 52.113 8.18517 50.741 5.3105 47.997C2.43583 45.253 0.998502 41.0717 0.998502 35.453C0.998503 29.7037 1.84784 24.7384 3.5465 20.557C5.24517 16.3757 7.40117 12.913 10.0145 10.169C12.4972 7.42503 15.3065 5.33436 18.4425 3.89703C21.4478 2.4597 24.3225 1.54503 27.0665 1.15303L27.0665 10.365C24.9758 10.8877 23.0158 11.737 21.1865 12.913C19.3572 14.2197 17.8545 15.7224 16.6785 17.421C15.3718 19.1197 14.3265 21.0144 13.5425 23.105C12.7585 25.1957 12.3665 27.2864 12.3665 29.377C12.6278 29.1157 13.0852 28.8544 13.7385 28.593C14.3918 28.4624 15.2412 28.397 16.2865 28.397C19.5532 28.397 22.3625 29.4424 24.7145 31.533C26.9358 33.6237 28.0465 36.5637 28.0465 40.353Z" stroke="white" stroke-width="2"/>
</svg>
