<svg width="63" height="54" viewBox="0 0 63 54" fill="none" xmlns="http://www.w3.org/2000/svg">
<path d="M1 12.76C1 9.49334 2.176 6.74934 4.528 4.528C7.01067 2.176 10.0813 1 13.74 1C17.5293 1 20.8613 2.372 23.736 5.116C26.6107 7.86 28.048 12.0413 28.048 17.66C28.048 23.4093 27.1987 28.3747 25.5 32.556C23.8013 36.7373 21.6453 40.2 19.032 42.944C16.5493 45.688 13.74 47.7787 10.604 49.216C7.59867 50.6533 4.724 51.568 1.98 51.96V42.748C4.07067 42.2253 6.03067 41.376 7.86 40.2C9.68933 38.8933 11.192 37.3907 12.368 35.692C13.6747 33.9933 14.72 32.0987 15.504 30.008C16.288 27.9173 16.68 25.8267 16.68 23.736C16.4187 23.9973 15.9613 24.2587 15.308 24.52C14.6547 24.6507 13.8053 24.716 12.76 24.716C9.49333 24.716 6.684 23.6707 4.332 21.58C2.11067 19.4893 1 16.5493 1 12.76ZM34.516 12.76C34.516 9.49334 35.692 6.74934 38.044 4.528C40.5267 2.176 43.5973 1 47.256 1C51.0453 1 54.3773 2.372 57.252 5.116C60.1267 7.86 61.564 12.0413 61.564 17.66C61.564 23.4093 60.7147 28.3747 59.016 32.556C57.3173 36.7373 55.1613 40.2 52.548 42.944C50.0653 45.688 47.256 47.7787 44.12 49.216C41.1147 50.6533 38.24 51.568 35.496 51.96V42.748C37.5867 42.2253 39.5467 41.376 41.376 40.2C43.2053 38.8933 44.708 37.3907 45.884 35.692C47.1907 33.9933 48.236 32.0987 49.02 30.008C49.804 27.9173 50.196 25.8267 50.196 23.736C49.9347 23.9973 49.4773 24.2587 48.824 24.52C48.1707 24.6507 47.3213 24.716 46.276 24.716C43.0093 24.716 40.2 23.6707 37.848 21.58C35.6267 19.4893 34.516 16.5493 34.516 12.76Z" stroke="white" stroke-width="2"/>
</svg>
